<svg width="25" height="24" viewBox="0 0 25 24" fill="none" xmlns="http://www.w3.org/2000/svg">
<g id="Outline / Messages, Conversation / Pen New Square">
<path id="Vector" fill-rule="evenodd" clip-rule="evenodd" d="M12.4426 1.25L14 1.25C14.4142 1.25 14.75 1.58579 14.75 2C14.75 2.41421 14.4142 2.75 14 2.75H12.5C10.1218 2.75 8.41356 2.75159 7.11358 2.92637C5.83517 3.09825 5.06445 3.42514 4.4948 3.9948C3.92514 4.56445 3.59825 5.33517 3.42637 6.61358C3.25159 7.91356 3.25 9.62177 3.25 12C3.25 14.3782 3.25159 16.0864 3.42637 17.3864C3.59825 18.6648 3.92514 19.4355 4.4948 20.0052C5.06445 20.5749 5.83517 20.9018 7.11358 21.0736C8.41356 21.2484 10.1218 21.25 12.5 21.25C14.8782 21.25 16.5864 21.2484 17.8864 21.0736C19.1648 20.9018 19.9355 20.5749 20.5052 20.0052C21.0749 19.4355 21.4018 18.6648 21.5736 17.3864C21.7484 16.0864 21.75 14.3782 21.75 12V10.5C21.75 10.0858 22.0858 9.75 22.5 9.75C22.9142 9.75 23.25 10.0858 23.25 10.5V12.0574C23.25 14.3658 23.25 16.1748 23.0603 17.5863C22.866 19.031 22.4607 20.1711 21.5659 21.0659C20.6711 21.9607 19.531 22.366 18.0863 22.5603C16.6748 22.75 14.8658 22.75 12.5574 22.75H12.4426C10.1342 22.75 8.32519 22.75 6.91371 22.5603C5.46897 22.366 4.32895 21.9607 3.43414 21.0659C2.53933 20.1711 2.13399 19.031 1.93975 17.5863C1.74998 16.1748 1.74999 14.3658 1.75 12.0574V11.9426C1.74999 9.63423 1.74998 7.82519 1.93975 6.41371C2.13399 4.96897 2.53933 3.82895 3.43414 2.93414C4.32895 2.03933 5.46897 1.63399 6.91371 1.43975C8.32519 1.24998 10.1342 1.24999 12.4426 1.25ZM17.2705 2.27592C18.6384 0.908029 20.8562 0.908029 22.2241 2.27592C23.592 3.6438 23.592 5.86158 22.2241 7.22947L15.576 13.8776C15.2047 14.2489 14.9721 14.4815 14.7126 14.684C14.4069 14.9224 14.0761 15.1268 13.7261 15.2936C13.429 15.4352 13.1169 15.5392 12.6188 15.7052L9.71426 16.6734C9.17801 16.8521 8.5868 16.7126 8.18711 16.3129C7.78742 15.9132 7.64785 15.322 7.8266 14.7857L8.79477 11.8812C8.96079 11.3831 9.06479 11.071 9.2064 10.7739C9.37319 10.4239 9.57761 10.0931 9.81605 9.78742C10.0185 9.52787 10.2511 9.29529 10.6224 8.924L17.2705 2.27592ZM21.1634 3.33658C20.3813 2.55448 19.1133 2.55448 18.3312 3.33658L17.9546 3.7132C17.9773 3.80906 18.009 3.92327 18.0532 4.05066C18.1965 4.46372 18.4677 5.00771 18.98 5.51999C19.4923 6.03227 20.0363 6.30346 20.4493 6.44677C20.5767 6.49097 20.6909 6.52273 20.7868 6.54543L21.1634 6.16881C21.9455 5.38671 21.9455 4.11867 21.1634 3.33658ZM19.6051 7.72709C19.0892 7.50519 18.4882 7.14946 17.9193 6.58065C17.3505 6.01185 16.9948 5.41082 16.7729 4.89486L11.7175 9.95026C11.301 10.3668 11.1376 10.532 10.9988 10.7099C10.8274 10.9297 10.6804 11.1676 10.5605 11.4192C10.4634 11.623 10.3887 11.8429 10.2024 12.4017L9.77051 13.6974L10.8026 14.7295L12.0983 14.2976C12.6571 14.1113 12.877 14.0366 13.0808 13.9395C13.3324 13.8196 13.5703 13.6726 13.7901 13.5012C13.968 13.3624 14.1332 13.199 14.5497 12.7825L19.6051 7.72709Z" fill="#242424"/>
</g>
</svg>
