<svg width="21" height="21" viewBox="0 0 21 21" fill="none" xmlns="http://www.w3.org/2000/svg">
<g id="Outline / Arrows Action / Upload Minimalistic">
<g id="Vector">
<path d="M10.9613 2.57827C10.8429 2.44876 10.6755 2.375 10.5 2.375C10.3245 2.375 10.1571 2.44876 10.0387 2.57827L6.7054 6.2241C6.47248 6.47885 6.49019 6.87419 6.74494 7.1071C6.99969 7.34002 7.39502 7.32232 7.62794 7.06756L9.875 4.60984V13.8333C9.875 14.1785 10.1548 14.4583 10.5 14.4583C10.8452 14.4583 11.125 14.1785 11.125 13.8333V4.60984L13.3721 7.06756C13.605 7.32232 14.0003 7.34002 14.2551 7.1071C14.5098 6.87419 14.5275 6.47885 14.2946 6.2241L10.9613 2.57827Z" fill="white"/>
<path d="M3.625 13C3.625 12.6548 3.34518 12.375 3 12.375C2.65482 12.375 2.375 12.6548 2.375 13V13.0457C2.37498 14.1854 2.37497 15.104 2.4721 15.8265C2.57295 16.5765 2.7887 17.2081 3.29029 17.7097C3.79189 18.2113 4.42345 18.427 5.17354 18.5279C5.89602 18.625 6.81462 18.625 7.95428 18.625H13.0457C14.1854 18.625 15.104 18.625 15.8265 18.5279C16.5766 18.427 17.2081 18.2113 17.7097 17.7097C18.2113 17.2081 18.4271 16.5765 18.5279 15.8265C18.625 15.104 18.625 14.1854 18.625 13.0457V13C18.625 12.6548 18.3452 12.375 18 12.375C17.6548 12.375 17.375 12.6548 17.375 13C17.375 14.1962 17.3737 15.0304 17.289 15.6599C17.2068 16.2714 17.0565 16.5952 16.8258 16.8258C16.5952 17.0565 16.2714 17.2068 15.6599 17.289C15.0304 17.3737 14.1962 17.375 13 17.375H8C6.80382 17.375 5.96956 17.3737 5.3401 17.289C4.72862 17.2068 4.40481 17.0565 4.17418 16.8258C3.94354 16.5952 3.79317 16.2714 3.71096 15.6599C3.62633 15.0304 3.625 14.1962 3.625 13Z" fill="white"/>
</g>
</g>
</svg>
