<svg width="100" height="100" viewBox="0 0 100 100" fill="none" xmlns="http://www.w3.org/2000/svg">
<rect width="100" height="100" rx="4" fill="#D9D9D9"/>
<path fill-rule="evenodd" clip-rule="evenodd" d="M49.8765 26.7085H50.1252C55.1267 26.7085 59.0463 26.7084 62.1045 27.1196C65.2348 27.5405 67.7048 28.4187 69.6436 30.3575C71.5823 32.2962 72.4606 34.7663 72.8814 37.8965C73.2926 40.9548 73.2926 44.8743 73.2925 49.8759V50.1245C73.2925 51.0885 73.2925 52.0123 73.2896 52.8975C73.294 52.9677 73.2938 53.0389 73.2888 53.1107C73.2747 56.7213 73.2069 59.6825 72.8814 62.1038C72.4606 65.2341 71.5823 67.7041 69.6436 69.6429C67.7048 71.5816 65.2348 72.4599 62.1045 72.8807C60.506 73.0956 58.6722 73.1982 56.5716 73.2472C56.3723 73.2952 56.1606 73.3061 55.9455 73.2731C55.9227 73.2696 55.9 73.2657 55.8776 73.2613C54.1405 73.2919 52.2285 73.2918 50.1252 73.2918H49.8766C44.875 73.2919 40.9554 73.2919 37.8972 72.8807C34.767 72.4599 32.2969 71.5816 30.3582 69.6429C28.4194 67.7041 27.5412 65.2341 27.1203 62.1038C26.7091 59.0456 26.7092 55.126 26.7092 50.1245V49.8758C26.7092 48.5625 26.7092 47.3238 26.7166 46.1557C26.7055 46.0414 26.7067 45.9285 26.719 45.8184C26.7433 42.688 26.8276 40.074 27.1203 37.8965C27.5412 34.7663 28.4194 32.2962 30.3582 30.3575C32.2969 28.4187 34.767 27.5405 37.8972 27.1196C40.9554 26.7084 44.875 26.7085 49.8765 26.7085ZM29.9615 47.4082C29.9593 48.2291 29.9592 49.0921 29.9592 50.0002C29.9592 55.153 29.9626 58.8541 30.3413 61.6707C30.7137 64.4406 31.422 66.1105 32.6563 67.3448C33.8905 68.579 35.5604 69.2873 38.3303 69.6597C41.1469 70.0384 44.848 70.0418 50.0009 70.0418C51.7436 70.0418 53.3203 70.0414 54.7529 70.0263C55.9291 56.6088 44.2622 45.3547 30.6901 47.3036L29.9615 47.4082ZM58.0197 69.9503C59.3875 69.8945 60.5942 69.8045 61.6714 69.6597C64.4413 69.2873 66.1112 68.579 67.3455 67.3448C68.5797 66.1105 69.288 64.4406 69.6604 61.6707C69.921 59.7324 70.0039 57.3751 70.0302 54.414L69.3355 54.3178C64.0934 53.5919 59.3255 56.0552 56.6842 60.0448C57.7816 63.1174 58.275 66.4679 58.0197 69.9503ZM55.1736 56.6596C50.5333 48.0868 40.8903 42.5556 30.2282 44.0865L29.9905 44.1207C30.0313 41.832 30.1252 39.9368 30.3413 38.3296C30.7137 35.5597 31.422 33.8898 32.6563 32.6556C33.8905 31.4213 35.5604 30.713 38.3303 30.3406C41.1469 29.9619 44.848 29.9585 50.0009 29.9585C55.1537 29.9585 58.8548 29.9619 61.6714 30.3406C64.4413 30.713 66.1112 31.4213 67.3455 32.6556C68.5797 33.8898 69.288 35.5597 69.6604 38.3296C70.0391 41.1462 70.0425 44.8473 70.0425 50.0002C70.0425 50.3864 70.0425 50.7645 70.0423 51.1346L69.7813 51.0985C63.9544 50.2917 58.602 52.6435 55.1736 56.6596ZM58.6675 38.6252C57.1718 38.6252 55.9592 39.8377 55.9592 41.3335C55.9592 42.8293 57.1718 44.0418 58.6675 44.0418C60.1633 44.0418 61.3759 42.8293 61.3759 41.3335C61.3759 39.8377 60.1633 38.6252 58.6675 38.6252ZM52.7092 41.3335C52.7092 38.0428 55.3768 35.3752 58.6675 35.3752C61.9582 35.3752 64.6259 38.0428 64.6259 41.3335C64.6259 44.6242 61.9582 47.2918 58.6675 47.2918C55.3768 47.2918 52.7092 44.6242 52.7092 41.3335Z" fill="#6C6C6C"/>
</svg>
