<svg width="28" height="28" viewBox="0 0 28 28" fill="none" xmlns="http://www.w3.org/2000/svg">
<rect x="0.5" y="0.5" width="26.5" height="26.5" rx="3.5" stroke="#242424"/>
<path fill-rule="evenodd" clip-rule="evenodd" d="M12.2803 7.21967C12.5732 7.51256 12.5732 7.98744 12.2803 8.28033L7.56066 13H21.75C22.1642 13 22.5 13.3358 22.5 13.75C22.5 14.1642 22.1642 14.5 21.75 14.5H7.56066L12.2803 19.2197C12.5732 19.5126 12.5732 19.9874 12.2803 20.2803C11.9874 20.5732 11.5126 20.5732 11.2197 20.2803L5.21967 14.2803C4.92678 13.9874 4.92678 13.5126 5.21967 13.2197L11.2197 7.21967C11.5126 6.92678 11.9874 6.92678 12.2803 7.21967Z" fill="#242424"/>
</svg>
