<svg width="24" height="25" viewBox="0 0 24 25" fill="none" xmlns="http://www.w3.org/2000/svg">
<g clip-path="url(#clip0_16_2845)">
<path d="M0 18.2588C0 18.966 0.280952 19.6443 0.781049 20.1444C1.28115 20.6445 1.95942 20.9254 2.66667 20.9254H21.3333C22.0406 20.9254 22.7189 20.6445 23.219 20.1444C23.719 19.6443 24 18.966 24 18.2588V14.9254H0V18.2588Z" fill="#138808"/>
<path d="M24 9.59213V6.2588C24 5.55156 23.719 4.87328 23.219 4.37318C22.7189 3.87308 22.0406 3.59213 21.3333 3.59213H2.66667C1.95942 3.59213 1.28115 3.87308 0.781049 4.37318C0.280952 4.87328 0 5.55156 0 6.2588L0 9.59213H24Z" fill="#FF9933"/>
<path d="M0 9.37012H24V15.1481H0V9.37012Z" fill="#F7F7F7"/>
<path d="M12 14.9255C13.4728 14.9255 14.6667 13.7316 14.6667 12.2588C14.6667 10.786 13.4728 9.59213 12 9.59213C10.5273 9.59213 9.33337 10.786 9.33337 12.2588C9.33337 13.7316 10.5273 14.9255 12 14.9255Z" fill="#000080"/>
<path d="M12 14.5088C13.2426 14.5088 14.25 13.5014 14.25 12.2588C14.25 11.0161 13.2426 10.0088 12 10.0088C10.7574 10.0088 9.75 11.0161 9.75 12.2588C9.75 13.5014 10.7574 14.5088 12 14.5088Z" fill="#F7F7F7"/>
<path d="M12.0667 11.4255L12 11.8588L11.9334 11.4255L12 10.1255L12.0667 11.4255ZM11.448 10.1981L11.72 11.4708L11.8967 11.8721L11.8487 11.4368L11.448 10.1981ZM10.9334 10.4115L11.5254 11.5701L11.8 11.9121L11.6414 11.5035L10.9334 10.4115ZM10.4914 10.7501L11.3634 11.7168L11.7174 11.9761L11.458 11.6221L10.4914 10.7501ZM10.1527 11.1921L11.2447 11.9001L11.6534 12.0588L11.3114 11.7841L10.1527 11.1921ZM9.93937 11.7068L11.178 12.1075L11.6134 12.1555L11.212 11.9788L9.93937 11.7068ZM9.8667 12.2588L11.1667 12.3255L11.6 12.2588L11.1667 12.1921L9.8667 12.2588ZM9.93937 12.8108L11.212 12.5388L11.6134 12.3621L11.178 12.4101L9.93937 12.8108ZM10.1527 13.3255L11.3114 12.7335L11.6534 12.4588L11.2447 12.6175L10.1527 13.3255ZM10.4914 13.7675L11.458 12.8955L11.7174 12.5415L11.3634 12.8008L10.4914 13.7675ZM10.9334 14.1061L11.6414 13.0141L11.8 12.6055L11.5254 12.9475L10.9334 14.1061ZM11.448 14.3195L11.8487 13.0808L11.8967 12.6455L11.72 13.0468L11.448 14.3195ZM12 14.3921L12.0667 13.0921L12 12.6588L11.9334 13.0921L12 14.3921ZM12.552 14.3195L12.28 13.0468L12.1034 12.6455L12.1514 13.0808L12.552 14.3195ZM13.0667 14.1061L12.4747 12.9475L12.2 12.6055L12.3587 13.0141L13.0667 14.1061ZM13.5087 13.7675L12.6367 12.8008L12.2827 12.5415L12.542 12.8955L13.5087 13.7675ZM13.8474 13.3255L12.7554 12.6175L12.3467 12.4588L12.6887 12.7335L13.8474 13.3255ZM14.0607 12.8108L12.822 12.4101L12.3867 12.3621L12.788 12.5388L14.0607 12.8108ZM14.1334 12.2588L12.8334 12.1921L12.4 12.2588L12.8334 12.3255L14.1334 12.2588ZM14.0607 11.7068L12.788 11.9788L12.3867 12.1555L12.822 12.1075L14.0607 11.7068ZM13.8474 11.1921L12.6887 11.7841L12.3467 12.0588L12.7554 11.9001L13.8474 11.1921ZM13.5087 10.7501L12.542 11.6221L12.2827 11.9761L12.6367 11.7168L13.5087 10.7501ZM13.0667 10.4115L12.3587 11.5035L12.2 11.9121L12.4747 11.5701L13.0667 10.4115ZM12.552 10.1981L12.1514 11.4368L12.1034 11.8721L12.28 11.4708L12.552 10.1981Z" fill="#6666B3"/>
<path d="M11.7066 10.1648C11.7802 10.1648 11.8399 10.1051 11.8399 10.0315C11.8399 9.95783 11.7802 9.89813 11.7066 9.89813C11.6329 9.89813 11.5732 9.95783 11.5732 10.0315C11.5732 10.1051 11.6329 10.1648 11.7066 10.1648Z" fill="#000080"/>
<path d="M11.1399 10.3168C11.2136 10.3168 11.2733 10.2571 11.2733 10.1835C11.2733 10.1098 11.2136 10.0501 11.1399 10.0501C11.0663 10.0501 11.0066 10.1098 11.0066 10.1835C11.0066 10.2571 11.0663 10.3168 11.1399 10.3168Z" fill="#000080"/>
<path d="M10.632 10.6095C10.7056 10.6095 10.7653 10.5498 10.7653 10.4761C10.7653 10.4025 10.7056 10.3428 10.632 10.3428C10.5584 10.3428 10.4987 10.4025 10.4987 10.4761C10.4987 10.5498 10.5584 10.6095 10.632 10.6095Z" fill="#000080"/>
<path d="M10.2173 11.0241C10.291 11.0241 10.3507 10.9644 10.3507 10.8908C10.3507 10.8172 10.291 10.7575 10.2173 10.7575C10.1437 10.7575 10.084 10.8172 10.084 10.8908C10.084 10.9644 10.1437 11.0241 10.2173 11.0241Z" fill="#000080"/>
<path d="M9.92459 11.5321C9.99823 11.5321 10.0579 11.4724 10.0579 11.3988C10.0579 11.3252 9.99823 11.2655 9.92459 11.2655C9.85096 11.2655 9.79126 11.3252 9.79126 11.3988C9.79126 11.4724 9.85096 11.5321 9.92459 11.5321Z" fill="#000080"/>
<path d="M9.77262 12.0988C9.84625 12.0988 9.90595 12.0391 9.90595 11.9655C9.90595 11.8918 9.84625 11.8321 9.77262 11.8321C9.69898 11.8321 9.63928 11.8918 9.63928 11.9655C9.63928 12.0391 9.69898 12.0988 9.77262 12.0988Z" fill="#000080"/>
<path d="M9.77262 12.6855C9.84625 12.6855 9.90595 12.6258 9.90595 12.5521C9.90595 12.4785 9.84625 12.4188 9.77262 12.4188C9.69898 12.4188 9.63928 12.4785 9.63928 12.5521C9.63928 12.6258 9.69898 12.6855 9.77262 12.6855Z" fill="#000080"/>
<path d="M9.92459 13.2521C9.99823 13.2521 10.0579 13.1924 10.0579 13.1188C10.0579 13.0452 9.99823 12.9855 9.92459 12.9855C9.85096 12.9855 9.79126 13.0452 9.79126 13.1188C9.79126 13.1924 9.85096 13.2521 9.92459 13.2521Z" fill="#000080"/>
<path d="M10.2173 13.7601C10.291 13.7601 10.3507 13.7004 10.3507 13.6268C10.3507 13.5532 10.291 13.4935 10.2173 13.4935C10.1437 13.4935 10.084 13.5532 10.084 13.6268C10.084 13.7004 10.1437 13.7601 10.2173 13.7601Z" fill="#000080"/>
<path d="M10.632 14.1748C10.7056 14.1748 10.7653 14.1151 10.7653 14.0415C10.7653 13.9678 10.7056 13.9081 10.632 13.9081C10.5584 13.9081 10.4987 13.9678 10.4987 14.0415C10.4987 14.1151 10.5584 14.1748 10.632 14.1748Z" fill="#000080"/>
<path d="M11.1399 14.4675C11.2136 14.4675 11.2733 14.4078 11.2733 14.3341C11.2733 14.2605 11.2136 14.2008 11.1399 14.2008C11.0663 14.2008 11.0066 14.2605 11.0066 14.3341C11.0066 14.4078 11.0663 14.4675 11.1399 14.4675Z" fill="#000080"/>
<path d="M11.7066 14.6195C11.7802 14.6195 11.8399 14.5598 11.8399 14.4861C11.8399 14.4125 11.7802 14.3528 11.7066 14.3528C11.6329 14.3528 11.5732 14.4125 11.5732 14.4861C11.5732 14.5598 11.6329 14.6195 11.7066 14.6195Z" fill="#000080"/>
<path d="M12.2932 14.6195C12.3669 14.6195 12.4266 14.5598 12.4266 14.4861C12.4266 14.4125 12.3669 14.3528 12.2932 14.3528C12.2196 14.3528 12.1599 14.4125 12.1599 14.4861C12.1599 14.5598 12.2196 14.6195 12.2932 14.6195Z" fill="#000080"/>
<path d="M12.8599 14.4675C12.9335 14.4675 12.9932 14.4078 12.9932 14.3341C12.9932 14.2605 12.9335 14.2008 12.8599 14.2008C12.7863 14.2008 12.7266 14.2605 12.7266 14.3341C12.7266 14.4078 12.7863 14.4675 12.8599 14.4675Z" fill="#000080"/>
<path d="M13.368 14.1748C13.4416 14.1748 13.5013 14.1151 13.5013 14.0415C13.5013 13.9678 13.4416 13.9081 13.368 13.9081C13.2943 13.9081 13.2346 13.9678 13.2346 14.0415C13.2346 14.1151 13.2943 14.1748 13.368 14.1748Z" fill="#000080"/>
<path d="M13.7826 13.7601C13.8563 13.7601 13.916 13.7004 13.916 13.6268C13.916 13.5532 13.8563 13.4935 13.7826 13.4935C13.709 13.4935 13.6493 13.5532 13.6493 13.6268C13.6493 13.7004 13.709 13.7601 13.7826 13.7601Z" fill="#000080"/>
<path d="M14.0752 13.2521C14.1489 13.2521 14.2086 13.1924 14.2086 13.1188C14.2086 13.0452 14.1489 12.9855 14.0752 12.9855C14.0016 12.9855 13.9419 13.0452 13.9419 13.1188C13.9419 13.1924 14.0016 13.2521 14.0752 13.2521Z" fill="#000080"/>
<path d="M14.2273 12.6855C14.301 12.6855 14.3607 12.6258 14.3607 12.5521C14.3607 12.4785 14.301 12.4188 14.2273 12.4188C14.1537 12.4188 14.094 12.4785 14.094 12.5521C14.094 12.6258 14.1537 12.6855 14.2273 12.6855Z" fill="#000080"/>
<path d="M14.2273 12.0988C14.301 12.0988 14.3607 12.0391 14.3607 11.9655C14.3607 11.8918 14.301 11.8321 14.2273 11.8321C14.1537 11.8321 14.094 11.8918 14.094 11.9655C14.094 12.0391 14.1537 12.0988 14.2273 12.0988Z" fill="#000080"/>
<path d="M14.0752 11.5321C14.1489 11.5321 14.2086 11.4724 14.2086 11.3988C14.2086 11.3252 14.1489 11.2655 14.0752 11.2655C14.0016 11.2655 13.9419 11.3252 13.9419 11.3988C13.9419 11.4724 14.0016 11.5321 14.0752 11.5321Z" fill="#000080"/>
<path d="M13.7826 11.0241C13.8563 11.0241 13.916 10.9644 13.916 10.8908C13.916 10.8172 13.8563 10.7575 13.7826 10.7575C13.709 10.7575 13.6493 10.8172 13.6493 10.8908C13.6493 10.9644 13.709 11.0241 13.7826 11.0241Z" fill="#000080"/>
<path d="M13.368 10.6095C13.4416 10.6095 13.5013 10.5498 13.5013 10.4761C13.5013 10.4025 13.4416 10.3428 13.368 10.3428C13.2943 10.3428 13.2346 10.4025 13.2346 10.4761C13.2346 10.5498 13.2943 10.6095 13.368 10.6095Z" fill="#000080"/>
<path d="M12.8599 10.3168C12.9335 10.3168 12.9932 10.2571 12.9932 10.1835C12.9932 10.1098 12.9335 10.0501 12.8599 10.0501C12.7863 10.0501 12.7266 10.1098 12.7266 10.1835C12.7266 10.2571 12.7863 10.3168 12.8599 10.3168Z" fill="#000080"/>
<path d="M12.2932 10.1648C12.3669 10.1648 12.4266 10.1051 12.4266 10.0315C12.4266 9.95783 12.3669 9.89813 12.2932 9.89813C12.2196 9.89813 12.1599 9.95783 12.1599 10.0315C12.1599 10.1051 12.2196 10.1648 12.2932 10.1648Z" fill="#000080"/>
<path d="M11.9999 12.8588C12.3313 12.8588 12.5999 12.5902 12.5999 12.2588C12.5999 11.9274 12.3313 11.6588 11.9999 11.6588C11.6685 11.6588 11.3999 11.9274 11.3999 12.2588C11.3999 12.5902 11.6685 12.8588 11.9999 12.8588Z" fill="#000080"/>
</g>
<defs>
<clipPath id="clip0_16_2845">
<rect width="24" height="24" fill="white" transform="translate(0 0.258789)"/>
</clipPath>
</defs>
</svg>
