<svg width="438" height="337" viewBox="0 0 438 337" fill="none" xmlns="http://www.w3.org/2000/svg">
<path d="M219 336.259C312.804 336.259 388.848 331.819 388.848 326.343C388.848 320.866 312.804 316.426 219 316.426C125.196 316.426 49.1523 320.866 49.1523 326.343C49.1523 331.819 125.196 336.259 219 336.259Z" fill="#F5F5F5"/>
<path d="M208.834 247.733H39.6872C36.9278 247.728 34.694 245.49 34.694 242.731V4.95816C34.7176 2.21628 36.9453 0.00438 39.6872 0H208.834C211.596 0 213.836 2.23906 213.836 5.00196V242.731C213.836 245.494 211.596 247.733 208.834 247.733ZM39.6872 0.175201C37.0487 0.180457 34.913 2.31965 34.913 4.95816V242.731C34.913 245.369 37.0487 247.509 39.6872 247.514H208.834C211.473 247.509 213.612 245.37 213.617 242.731V4.95816C213.612 2.31877 211.473 0.179581 208.834 0.175201H39.6872Z" fill="#E6E6E6"/>
<path d="M398.321 247.733H229.166C226.406 247.728 224.168 245.491 224.164 242.731V4.95816C224.193 2.21453 226.422 0.00438 229.166 0H398.321C401.06 0.009636 403.282 2.21978 403.306 4.95816V242.731C403.306 245.487 401.077 247.723 398.321 247.733ZM229.166 0.175201C226.527 0.180457 224.387 2.31877 224.383 4.95816V242.731C224.387 245.37 226.527 247.509 229.166 247.514H398.321C400.961 247.509 403.099 245.37 403.104 242.731V4.95816C403.099 2.31877 400.961 0.179581 398.321 0.175201H229.166Z" fill="#E6E6E6"/>
<path d="M75.2832 292.128H39.1832V292.347H75.2832V292.128Z" fill="#E0E0E0"/>
<path d="M148.867 290.376H112.662V290.595H148.867V290.376Z" fill="#E0E0E0"/>
<path d="M195.979 290.376H187.219V290.595H195.979V290.376Z" fill="#E0E0E0"/>
<path d="M108.422 297.858H67.9073V298.077H108.422V297.858Z" fill="#E0E0E0"/>
<path d="M248.556 292.015H229.635V292.234H248.556V292.015Z" fill="#E0E0E0"/>
<path d="M280.819 292.015H256.353V292.234H280.819V292.015Z" fill="#E0E0E0"/>
<path d="M398.817 295.72H344.119V295.939H398.817V295.72Z" fill="#E0E0E0"/>
<path d="M438 283.533H0V283.752H438V283.533Z" fill="#EBEBEB"/>
<path d="M169.087 51.2024C164.398 51.2611 160.27 47.4908 159.883 42.799C159.496 38.1062 162.996 34.2413 167.684 34.1826C172.373 34.1239 176.502 37.8942 176.888 42.587C177.276 47.2788 173.776 51.1437 169.087 51.2024ZM168.057 38.7045C165.86 38.7317 164.22 40.5433 164.402 42.742C164.583 44.9408 166.517 46.7068 168.714 46.6796C170.911 46.6525 172.551 44.8409 172.371 42.6422C172.189 40.4434 170.254 38.6774 168.057 38.7045Z" fill="#E0E0E0"/>
<path d="M169.508 38.0486L166.281 38.0889L164.569 17.3128L167.796 17.2725L169.508 38.0486Z" fill="#E0E0E0"/>
<path d="M170.854 18.2043L164.795 18.2805L164.529 15.0498L170.588 14.9745L170.854 18.2043Z" fill="#E0E0E0"/>
<path d="M171.201 22.356L165.504 22.427L165.237 19.1963L170.935 19.1253L171.201 22.356Z" fill="#E0E0E0"/>
<path d="M171.693 28.2112L166.72 28.2734L166.453 25.0427L171.427 24.9805L171.693 28.2112Z" fill="#E0E0E0"/>
<path d="M69.4748 227.793C69.4932 228.056 69.5291 228.319 69.5729 228.573C69.8664 230.264 70.7441 231.788 71.9627 232.927C73.3686 234.241 75.2389 235.055 77.2449 235.055H151.258C155.007 235.055 157.892 232.217 158.024 228.573C158.032 228.319 158.031 228.056 158.013 227.793C157.873 225.796 156.931 223.974 155.526 222.669C154.12 221.355 152.25 220.54 150.244 220.54H76.2296C72.2176 220.54 69.1945 223.79 69.4748 227.793Z" fill="#F0F0F0"/>
<path d="M158.02 228.572C158.016 228.809 157.995 229.045 157.955 229.273C157.761 227.381 156.836 225.664 155.491 224.42C154.086 223.106 152.217 222.291 150.211 222.291L71.5011 222.414C72.7038 221.249 74.363 220.539 76.2289 220.539H150.242C152.248 220.539 154.118 221.354 155.522 222.668C156.927 223.973 157.876 225.795 158.016 227.793C158.029 228.055 158.033 228.318 158.02 228.572Z" fill="#E0E0E0"/>
<path d="M145.354 224.041L145.602 227.581L148.921 226.352L149.673 228.1L146.285 229.218L148.652 232.188L147.122 233.307L144.818 230.22L142.978 233.307L141.34 232.188L143.26 229.218L139.746 228.1L140.253 226.363L143.773 227.547L143.528 224.041H145.354Z" fill="white"/>
<path d="M125.113 224.041L125.361 227.581L128.679 226.352L129.432 228.1L126.043 229.218L128.41 232.188L126.881 233.307L124.577 230.22L122.736 233.307L121.098 232.188L123.019 229.218L119.505 228.1L120.011 226.363L123.532 227.547L123.287 224.041H125.113Z" fill="white"/>
<path d="M104.871 224.041L105.119 227.581L108.437 226.352L109.19 228.1L105.802 229.218L108.168 232.188L106.639 233.307L104.335 230.22L102.495 233.307L100.857 232.188L102.777 229.218L99.2631 228.1L99.7694 226.363L103.29 227.547L103.045 224.041H104.871Z" fill="white"/>
<path d="M84.6294 224.041L84.8773 227.581L88.1956 226.352L88.9481 228.1L85.5597 229.218L87.9267 232.188L86.3972 233.307L84.0933 230.22L82.2528 233.307L80.6147 232.188L82.5349 229.218L79.0212 228.1L79.5276 226.363L83.0482 227.547L82.8029 224.041H84.6294Z" fill="white"/>
<path d="M133.796 217.983H130.346L130.362 217.107H133.811L133.796 217.983Z" fill="#E0E0E0"/>
<path d="M148.634 217.983H137.375L137.39 217.107H148.65L148.634 217.983Z" fill="#E0E0E0"/>
<g opacity="0.8">
<path d="M235.982 213.566L249.94 235.056L295.981 189.016C296.386 188.611 295.827 187.981 295.377 188.334L251.5 222.725L243.214 209.365L235.982 213.566Z" fill="#E0E0E0"/>
</g>
<path opacity="0.1" d="M227.634 60.6412L194.574 184.289H205.695L238.39 60.6412H227.634Z" fill="white"/>
<path opacity="0.1" d="M244.797 60.6412L211.737 184.289H233.796L266.491 60.6412H244.797Z" fill="white"/>
<path d="M363.811 172.208L370.785 72.9542C371.016 69.6753 368.531 67.0184 365.236 67.0219L192.021 67.1726C188.725 67.1752 185.867 69.8365 185.637 73.1154L178.663 172.37C178.432 175.649 180.917 178.305 184.212 178.302L357.427 178.151C360.723 178.148 363.581 175.487 363.811 172.208Z" fill="#263238"/>
<path d="M361.589 170.044L368.563 70.7896C368.793 67.5107 366.309 64.8538 363.014 64.8573L189.799 65.008C186.503 65.0106 183.645 67.6719 183.414 70.9508L176.44 170.205C176.21 173.485 178.694 176.141 181.99 176.137L355.205 175.987C358.5 175.984 361.359 173.323 361.589 170.044Z" fill="#6C6C6C"/>
<path opacity="0.6" d="M356.997 171.508C356.75 171.739 356.321 172.015 355.689 172.016L182.474 172.165C181.309 172.166 180.358 171.152 180.44 169.996L187.414 70.7421C187.458 70.1184 187.76 69.7145 188.007 69.4841C188.255 69.2538 188.682 68.9787 189.315 68.9769L362.531 68.8271C363.696 68.8263 364.646 69.8398 364.565 70.997L357.591 170.25C357.545 170.875 357.243 171.279 356.997 171.508Z" fill="white"/>
<path d="M299.381 116.945H238.582C237.496 116.945 236.524 117.821 236.411 118.901L235.481 127.792C235.368 128.872 236.156 129.748 237.241 129.748H298.041C299.126 129.748 300.099 128.872 300.212 127.792L301.142 118.901C301.255 117.821 300.467 116.945 299.381 116.945Z" fill="white"/>
<path d="M245.813 153.261H236.325C235.24 153.261 234.267 154.137 234.154 155.217L233.224 164.107C233.111 165.187 233.899 166.063 234.985 166.063H244.473C245.558 166.063 246.53 165.187 246.643 164.107L247.574 155.217C247.688 154.137 246.899 153.261 245.813 153.261Z" fill="white"/>
<path d="M262.195 153.26H252.707C251.622 153.26 250.65 154.136 250.537 155.217L249.606 164.107C249.493 165.187 250.282 166.063 251.367 166.063H260.855C261.94 166.063 262.913 165.187 263.026 164.107L263.956 155.217C264.07 154.136 263.282 153.26 262.195 153.26Z" fill="white"/>
<path d="M278.577 153.26H269.089C268.004 153.26 267.031 154.136 266.918 155.217L265.988 164.107C265.875 165.187 266.663 166.063 267.749 166.063H277.237C278.322 166.063 279.295 165.187 279.408 164.107L280.338 155.217C280.452 154.136 279.663 153.26 278.577 153.26Z" fill="white"/>
<path d="M294.959 153.26H285.471C284.386 153.26 283.413 154.136 283.3 155.217L282.37 164.107C282.257 165.187 283.046 166.063 284.131 166.063H293.619C294.704 166.063 295.677 165.187 295.79 164.107L296.72 155.217C296.834 154.136 296.045 153.26 294.959 153.26Z" fill="white"/>
<path d="M246.208 147.204H284.24C286.09 147.204 287.744 145.712 287.937 143.872L288.394 139.507C288.587 137.667 287.244 136.176 285.395 136.176H247.363C245.513 136.176 243.859 137.668 243.666 139.507L243.209 143.872C243.016 145.712 244.359 147.204 246.208 147.204Z" stroke="#6C6C6C" stroke-width="0.876" stroke-miterlimit="10" stroke-linecap="round" stroke-linejoin="round"/>
<path d="M301.572 98.431H240.773C239.687 98.431 238.715 99.307 238.602 100.387L237.672 109.278C237.559 110.358 238.347 111.234 239.432 111.234H300.232C301.317 111.234 302.29 110.358 302.403 109.278L303.333 100.387C303.447 99.307 302.658 98.431 301.572 98.431Z" fill="white"/>
<path d="M245.975 123.347C246.1 122.151 245.227 121.181 244.026 121.181C242.824 121.181 241.748 122.151 241.623 123.347C241.498 124.543 242.371 125.512 243.573 125.512C244.775 125.512 245.85 124.543 245.975 123.347Z" fill="#263238"/>
<path d="M252.663 123.347C252.788 122.151 251.914 121.181 250.713 121.181C249.511 121.181 248.435 122.151 248.31 123.347C248.184 124.543 249.058 125.512 250.259 125.512C251.462 125.512 252.537 124.543 252.663 123.347Z" fill="#263238"/>
<path d="M259.349 123.347C259.474 122.151 258.601 121.181 257.399 121.181C256.197 121.181 255.121 122.151 254.996 123.347C254.871 124.543 255.743 125.512 256.946 125.512C258.148 125.512 259.223 124.543 259.349 123.347Z" fill="#263238"/>
<path d="M266.036 123.347C266.162 122.151 265.289 121.181 264.087 121.181C262.885 121.181 261.81 122.151 261.684 123.347C261.559 124.543 262.432 125.512 263.634 125.512C264.835 125.512 265.911 124.543 266.036 123.347Z" fill="#263238"/>
<path d="M272.854 123.347C272.979 122.151 272.106 121.181 270.905 121.181C269.703 121.181 268.627 122.151 268.502 123.347C268.377 124.543 269.25 125.512 270.452 125.512C271.653 125.512 272.729 124.543 272.854 123.347Z" fill="#263238"/>
<path d="M248.166 104.833C248.291 103.637 247.418 102.667 246.216 102.667C245.014 102.667 243.938 103.637 243.813 104.833C243.688 106.028 244.561 106.998 245.762 106.998C246.965 106.999 248.04 106.029 248.166 104.833Z" fill="#263238"/>
<path d="M254.853 104.833C254.979 103.637 254.106 102.667 252.903 102.667C251.701 102.667 250.626 103.637 250.5 104.833C250.375 106.028 251.248 106.998 252.45 106.998C253.652 106.999 254.728 106.029 254.853 104.833Z" fill="#263238"/>
<path d="M261.54 104.833C261.665 103.637 260.792 102.667 259.591 102.667C258.389 102.667 257.313 103.637 257.188 104.833C257.062 106.028 257.936 106.998 259.137 106.998C260.339 106.999 261.414 106.029 261.54 104.833Z" fill="#263238"/>
<path d="M268.227 104.833C268.352 103.637 267.479 102.667 266.278 102.667C265.076 102.667 264.001 103.637 263.875 104.833C263.75 106.028 264.623 106.998 265.825 106.998C267.027 106.998 268.102 106.029 268.227 104.833Z" fill="#263238"/>
<path d="M274.914 104.833C275.039 103.637 274.166 102.667 272.965 102.667C271.763 102.667 270.687 103.637 270.562 104.833C270.436 106.028 271.31 106.998 272.512 106.998C273.713 106.999 274.788 106.029 274.914 104.833Z" fill="#263238"/>
<path d="M281.601 104.833C281.726 103.637 280.853 102.667 279.652 102.667C278.45 102.667 277.374 103.637 277.249 104.833C277.124 106.028 277.996 106.998 279.199 106.998C280.4 106.999 281.475 106.029 281.601 104.833Z" fill="#263238"/>
<path d="M275.921 78.8242L275.447 83.3146C275.404 83.7193 275.039 84.0469 274.633 84.0469C274.226 84.0469 273.931 83.7184 273.974 83.3146L274.448 78.8242C274.601 77.3744 273.541 76.1936 272.083 76.1936H270.468C269.012 76.1936 267.701 77.3744 267.549 78.8242L267.138 82.9949H265.665L266.076 78.8242C266.314 76.5659 268.355 74.728 270.623 74.728H272.238C274.506 74.728 276.159 76.565 275.921 78.8242Z" fill="#6C6C6C"/>
<path d="M275.951 83.1499L275.027 91.8986C274.969 92.4522 274.472 92.8998 273.916 92.8998H265.125C264.57 92.8998 264.166 92.4522 264.224 91.8986L265.148 83.1499C265.185 82.7925 265.408 82.4781 265.709 82.302C265.874 82.2047 266.063 82.1487 266.259 82.1487H275.05C275.241 82.1487 275.413 82.2012 275.555 82.2923C275.828 82.4675 275.989 82.7855 275.951 83.1499Z" fill="#6C6C6C"/>
<path d="M344.539 64.279L323.133 64.406" stroke="#263238" stroke-width="0.876" stroke-miterlimit="10" stroke-linecap="round" stroke-linejoin="round"/>
<path d="M356.207 64.2213L348.641 64.2546" stroke="#263238" stroke-width="0.876" stroke-miterlimit="10" stroke-linecap="round" stroke-linejoin="round"/>
<g opacity="0.3">
<path d="M205.947 68.9517H230.454L205.54 172.166H185.816C185.798 172.166 185.78 172.166 185.762 172.166C183.322 172.153 181.599 169.818 182.171 167.447L205.947 68.9517Z" fill="white"/>
<path d="M241.334 68.9518H251.739L226.824 172.166H216.42L241.334 68.9518Z" fill="white"/>
</g>
<path d="M274.97 256.694C270.543 274.432 268.745 292.824 269.654 311.084" stroke="#6C6C6C" stroke-width="0.876" stroke-miterlimit="10"/>
<path d="M270.878 255.939C270.918 257.574 272.384 263.357 274.021 263.317C275.656 263.278 276.841 257.43 276.802 255.795C276.762 254.159 275.405 252.866 273.769 252.905C272.133 252.945 270.839 254.304 270.878 255.939Z" fill="#6C6C6C"/>
<path d="M277.249 274.327C277.21 272.691 275.743 266.909 274.108 266.948C272.472 266.987 271.286 272.834 271.327 274.47C271.366 276.106 272.724 277.4 274.359 277.36C275.995 277.32 277.289 275.962 277.249 274.327Z" fill="#6C6C6C"/>
<path d="M264.869 268.318C266.505 268.279 272.287 266.812 272.248 265.176C272.209 263.54 266.362 262.355 264.726 262.395C263.09 262.435 261.796 263.793 261.836 265.428C261.876 267.064 263.234 268.357 264.869 268.318Z" fill="#6C6C6C"/>
<path d="M283.257 261.947C281.621 261.986 275.839 263.453 275.878 265.088C275.918 266.724 281.764 267.909 283.4 267.87C285.036 267.83 286.33 266.472 286.29 264.837C286.251 263.201 284.892 261.908 283.257 261.947Z" fill="#6C6C6C"/>
<path d="M265.309 260.884C266.494 262.012 271.62 265.064 272.748 263.88C273.877 262.696 270.581 257.723 269.397 256.594C268.212 255.466 266.337 255.511 265.209 256.696C264.08 257.88 264.125 259.755 265.309 260.884Z" fill="#6C6C6C"/>
<path d="M282.817 269.381C281.633 268.252 276.507 265.2 275.378 266.385C274.25 267.569 277.545 272.541 278.73 273.67C279.914 274.799 281.789 274.754 282.918 273.569C284.047 272.384 284.001 270.51 282.817 269.381Z" fill="#6C6C6C"/>
<path d="M269.815 273.886C270.944 272.702 273.996 267.575 272.81 266.447C271.626 265.319 266.654 268.614 265.525 269.799C264.396 270.983 264.442 272.859 265.626 273.987C266.811 275.116 268.686 275.071 269.815 273.886Z" fill="#6C6C6C"/>
<path d="M278.312 256.379C277.183 257.563 274.131 262.689 275.316 263.818C276.5 264.946 281.473 261.651 282.601 260.466C283.731 259.281 283.685 257.406 282.5 256.278C281.316 255.149 279.44 255.195 278.312 256.379Z" fill="#6C6C6C"/>
<path d="M270.556 265.218C270.603 267.155 272.211 268.688 274.148 268.64C276.085 268.594 277.618 266.986 277.57 265.049C277.523 263.112 275.915 261.579 273.978 261.626C272.041 261.672 270.509 263.28 270.556 265.218Z" fill="white"/>
<path d="M270.053 291.291C270.053 291.291 270.659 282.345 275.569 280.929C280.479 279.514 282.282 277.596 282.282 277.596C282.282 277.596 281.784 291.464 270.053 291.291Z" fill="#6C6C6C"/>
<path opacity="0.5" d="M270.053 291.291C270.053 291.291 270.659 282.345 275.569 280.929C280.479 279.514 282.282 277.596 282.282 277.596C282.282 277.596 281.784 291.464 270.053 291.291Z" fill="white"/>
<path d="M269.404 298.14C269.404 298.14 268.799 289.193 263.889 287.777C258.979 286.363 257.176 284.444 257.176 284.444C257.176 284.444 257.674 298.311 269.404 298.14Z" fill="#6C6C6C"/>
<path opacity="0.5" d="M269.404 298.14C269.404 298.14 268.799 289.193 263.889 287.777C258.979 286.363 257.176 284.444 257.176 284.444C257.176 284.444 257.674 298.311 269.404 298.14Z" fill="white"/>
<path d="M287.941 316.772C287.941 323.754 279.627 329.404 269.378 329.404C259.12 329.404 250.816 323.754 250.816 316.772C250.816 313.242 252.944 310.045 256.387 307.758C258.376 306.427 260.802 305.402 263.5 304.797H275.256C278.033 305.428 280.521 306.488 282.536 307.872C285.882 310.159 287.941 313.295 287.941 316.772Z" fill="#6C6C6C"/>
<path opacity="0.8" d="M275.256 304.797C278.033 305.428 280.521 306.488 282.536 307.872C285.882 310.159 287.941 313.295 287.941 316.772C287.941 323.754 279.627 329.404 269.378 329.404C259.12 329.404 250.816 323.754 250.816 316.772C250.816 313.242 252.944 310.045 256.387 307.758C258.376 306.427 260.802 305.402 263.5 304.797H275.256Z" fill="white"/>
<path d="M269.432 305.935C269.432 308.016 269.432 310.098 269.432 312.18" stroke="#6C6C6C" stroke-width="0.876" stroke-miterlimit="10"/>
<path d="M283.353 304.603L282.367 307.672L282.351 307.704H256.396L256.341 307.54L255.403 304.603H283.353Z" fill="#6C6C6C"/>
<path d="M285.748 319.309C283.959 321.894 281.412 323.957 278.618 325.439C274.16 327.806 255.403 328.416 253.263 317.774C253.234 317.626 253.184 317.483 253.157 317.333C252.645 314.549 255.122 312.073 257.939 312.355C259.69 312.53 261.517 312.321 263.257 312.057C269.967 311.035 276.885 311.409 283.448 313.14C286.128 313.846 287.326 317.029 285.748 319.309Z" fill="#263238"/>
<path d="M151.118 315.771C151.447 315.654 151.665 315.394 151.768 315.001C151.845 314.704 151.733 314.51 151.626 314.398C150.951 313.693 148.211 314.193 147.901 314.253C147.829 314.267 147.773 314.32 147.757 314.391C147.741 314.461 147.77 314.534 147.829 314.575C148.284 314.897 148.948 315.322 149.607 315.588C150.156 315.809 150.701 315.921 151.118 315.771ZM151.36 314.644C151.405 314.691 151.451 314.764 151.413 314.912C151.342 315.187 151.204 315.357 150.993 315.433C150.496 315.612 149.546 315.276 148.406 314.53C149.507 314.362 151.005 314.27 151.36 314.644Z" fill="#6C6C6C"/>
<path d="M147.958 314.607C148.797 314.502 150.726 313.513 150.895 312.657C150.927 312.493 150.922 312.185 150.52 311.964C150.266 311.823 149.993 311.8 149.712 311.897C148.655 312.259 147.803 314.276 147.766 314.361C147.741 314.42 147.75 314.488 147.789 314.539C147.81 314.565 147.836 314.584 147.865 314.596C147.895 314.606 147.926 314.61 147.958 314.607ZM150.341 312.276C150.546 312.389 150.553 312.502 150.536 312.587C150.432 313.109 149.149 313.919 148.248 314.177C148.568 313.52 149.201 312.451 149.831 312.234C149.985 312.182 150.127 312.184 150.266 312.24C150.291 312.25 150.317 312.263 150.341 312.276Z" fill="#6C6C6C"/>
<path d="M139.642 311.076L146.773 313.959L152.997 297.481L145.866 294.599L139.642 311.076Z" fill="#FFB573"/>
<path d="M147.677 313.375L139.665 310.137C139.374 310.018 139.054 310.123 138.896 310.386L135.38 316.255C135.016 316.863 135.325 317.704 136.002 317.965C138.815 319.046 140.229 319.429 143.752 320.853C145.919 321.729 148.994 323.23 151.987 324.44C154.915 325.623 156.356 322.802 155.22 322.034C150.125 318.593 149.922 316.605 148.69 314.288C148.467 313.87 148.104 313.547 147.677 313.375Z" fill="#263238"/>
<path d="M152.906 305.566L140.52 300.559L141.655 296.02L154.944 300.882L152.906 305.566Z" fill="#6C6C6C"/>
<path d="M165.307 114.848C162.794 122.121 155.355 139.256 149.623 132.119C148.6 130.845 147.727 129.466 147.119 127.949C144.686 121.945 144.087 112.222 143.779 110.097L141.827 103.431C141.792 103.316 141.775 103.196 141.774 103.077L141.742 99.2709C141.742 97.7283 142.985 96.8111 144.669 96.9522C144.669 96.9522 147.385 96.6351 147.385 98.2574L147.914 103.97H147.896C148.17 105.963 147.376 108.731 147.844 110.556C149.59 117.415 152.004 117.723 153.52 124.802C155.627 119.698 159.41 110.855 159.41 110.855C161.957 111.171 166.136 112.449 165.307 114.848Z" fill="#FFB573"/>
<path d="M156.323 134.732C154.612 137.372 150.761 137.525 148.905 134.985C147.77 133.433 146.871 131.723 146.481 130.435C144.206 122.968 142.795 118.339 142.602 110.536C144.189 108.888 146.771 108.271 148.932 109.037L152.661 121.68C152.661 121.68 160.26 102.802 163.328 102.123C166.951 101.329 168.459 104.558 169.984 108.535C171.083 111.396 161.273 127.096 156.323 134.732Z" fill="#6C6C6C"/>
<path d="M187.009 83.2329C186.15 87.6147 184.22 97.1736 187.286 100.098C187.286 100.098 186.088 104.542 177.946 104.542C168.993 104.542 173.667 100.098 173.667 100.098C178.554 98.9308 178.428 95.3051 177.577 91.9009L187.009 83.2329Z" fill="#FFB573"/>
<path d="M173.315 72.8989C173.367 72.8989 173.421 72.8867 173.471 72.8622C173.643 72.7754 173.713 72.5652 173.627 72.3926C172.76 70.6625 171.157 70.4619 171.09 70.454C170.899 70.4304 170.724 70.5705 170.702 70.7624C170.681 70.9533 170.818 71.1268 171.009 71.1487C171.063 71.1548 172.31 71.3248 173.001 72.7053C173.063 72.828 173.187 72.8981 173.315 72.8989Z" fill="#263238"/>
<path d="M170.645 76.728C170.645 76.728 169.327 79.1493 168.071 80.2399C168.761 81.0651 170.129 80.896 170.129 80.896L170.645 76.728Z" fill="#ED893E"/>
<path d="M171.349 75.446C171.475 76.0286 171.269 76.5673 170.888 76.6497C170.508 76.732 170.097 76.3273 169.971 75.7448C169.844 75.1622 170.05 74.6235 170.43 74.5411C170.811 74.4588 171.222 74.8644 171.349 75.446Z" fill="#263238"/>
<path d="M170.606 74.5379L169.12 74.438C169.12 74.438 170.074 75.3745 170.606 74.5379Z" fill="#263238"/>
<path d="M140.141 96.642V96.6592C140.141 96.6506 140.132 96.6506 140.132 96.642H140.141Z" fill="#FFB573"/>
<path opacity="0.2" d="M164.991 111.108C166.543 109.688 167.592 110.112 168.306 111.24C169.011 114.52 164.833 121.388 163.149 123.989L164.991 111.108Z" fill="black"/>
<path d="M200.87 115.428C200.669 119.037 200.327 123.583 199.775 129.304C199.197 135.339 198.373 142.671 197.243 151.58C185.339 151.58 172.873 151.396 167.083 151.396C167.567 139.563 167.746 127.574 162.437 104.021C162.159 102.784 162.969 101.559 164.218 101.336C166.623 100.908 170.607 100.296 174.661 100.098C179.707 99.8525 183.842 99.6948 188.283 100.098C194.126 100.632 200.766 101.99 200.766 101.99C200.766 101.99 201.501 104.162 200.87 115.428Z" fill="#6C6C6C"/>
<path opacity="0.2" d="M200.87 115.428C200.668 119.037 200.327 123.583 199.775 129.304C196.569 125.589 193.538 112.8 194.501 108.429C196.867 110.04 199.057 112.52 200.73 114.736C200.782 114.946 200.835 115.173 200.87 115.428Z" fill="black"/>
<path d="M231.783 131.461L237.883 128.031L239.023 134.277C239.023 134.277 233.853 136.257 231.115 134.87L231.783 131.461Z" fill="#FFB573"/>
<path d="M241.97 128.74L242.394 130.779C242.527 131.42 242.26 132.078 241.719 132.446L239.024 134.277L237.884 128.031L239.993 127.502C240.884 127.277 241.783 127.841 241.97 128.74Z" fill="#FFB573"/>
<path d="M194.995 109.229C196.95 113.208 204.121 128.228 207.273 131.7L207.889 132.348L208.198 132.67C208.303 132.779 208.387 132.875 208.555 133.022C209.146 133.579 209.776 134.045 210.414 134.427C211.693 135.194 212.988 135.643 214.234 135.969C216.729 136.593 219.099 136.694 221.399 136.65C226.008 136.469 230.319 135.696 234.626 134.403L233.843 130.746C231.824 130.917 229.702 131.042 227.649 131.076C225.588 131.133 223.538 131.075 221.561 130.883C219.59 130.712 217.67 130.367 216.046 129.81C215.244 129.525 214.537 129.163 214.009 128.782C213.744 128.592 213.531 128.393 213.357 128.201C213.322 128.174 213.234 128.064 213.159 127.975L212.931 127.701L212.473 127.157C210.053 124.126 203.667 109.517 201.75 105.865L194.995 109.229Z" fill="#FFB573"/>
<path d="M231.687 137.676C226.714 140.356 220.658 140.947 215.262 139.272C210.132 137.676 205.565 133.956 202.92 129.275C199.755 124.62 191.336 111.463 192.394 108.06C193.645 103.995 196.308 101.474 200.76 102.567C203.89 103.326 209.858 118.51 212.74 124.585C213.877 126.277 216.046 128.958 218.471 129.786C222.756 131.268 225.912 130.624 230.4 129.989C231.22 130.484 231.158 131.241 231.573 132.096C232.419 133.824 232.56 135.966 231.687 137.676Z" fill="#6C6C6C"/>
<path d="M191.426 76.2077C190.082 83.4128 189.667 86.4902 185.539 89.7629C179.33 94.6861 170.775 91.4589 169.939 83.998C169.187 77.2826 171.512 66.6287 178.975 64.6182C186.328 62.6393 192.77 69.0035 191.426 76.2077Z" fill="#FFB573"/>
<path d="M216.985 116.079C215.61 117.647 215.176 118.554 213.266 119.404C211.357 120.254 207.188 119.514 205.865 117.893C206.294 119.154 208.803 121.422 210.117 121.598C207.209 123.297 203.118 122.579 200.954 119.986C201.164 121.519 202.61 122.894 204.073 123.411C187.286 123.845 194.354 115.945 183.849 104.712C172.212 92.2682 174.735 81.9849 174.735 81.9849C174.727 80.2066 174.332 77.2544 172.449 74.8542C170.767 72.6992 171.258 69.7909 171.792 68.1616C172.572 65.7701 174.946 64.9291 177.223 64.789C177.624 62.429 182.446 62.8635 183.063 63.2577C183.592 63.5959 183.727 63.5678 184.255 63.2288C185.44 62.4693 188.418 61.6765 191.606 64.2546C193.553 65.8288 195.631 68.6521 195.702 74.6615C195.774 80.9109 192.792 88.3245 203.122 97.8186C209.21 103.414 206.3 115.424 216.985 116.079Z" fill="#263238"/>
<path d="M173.351 76.7514C172.466 77.9778 172.212 79.502 172.407 80.7319C172.7 82.5812 174.503 82.7038 175.809 81.5186C176.983 80.4516 178.246 78.2038 177.284 76.6708C176.336 75.1606 174.364 75.3498 173.351 76.7514Z" fill="#FFB573"/>
<path d="M189.608 151.577C189.608 151.577 186.031 201.865 181.994 235.035C180.784 244.973 177.755 254.608 173.045 263.481L153.259 300.762L143.132 296.779C143.132 296.779 150.108 261.341 163.79 242.019C163.79 242.019 153.578 184.265 166.944 151.4L189.608 151.577Z" fill="#263238"/>
<path opacity="0.2" d="M175.837 163.755C175.837 163.755 178.848 186.567 180.503 200.084C174.291 191.937 169.534 180.571 175.837 163.755Z" fill="black"/>
<path d="M215.181 320.493C215.415 320.238 215.485 319.908 215.388 319.514C215.315 319.217 215.123 319.095 214.976 319.046C214.044 318.734 211.861 320.439 211.615 320.634C211.558 320.679 211.534 320.754 211.553 320.823C211.573 320.891 211.632 320.943 211.705 320.952C212.259 321.027 213.049 321.096 213.758 321.028C214.349 320.97 214.883 320.818 215.181 320.493ZM214.858 319.386C214.92 319.406 214.996 319.449 215.032 319.598C215.099 319.874 215.06 320.088 214.909 320.252C214.555 320.638 213.556 320.78 212.194 320.646C213.087 319.99 214.366 319.219 214.858 319.386Z" fill="#6C6C6C"/>
<path d="M211.834 320.92C212.526 320.442 213.759 318.678 213.501 317.843C213.452 317.684 213.301 317.414 212.84 317.404C212.548 317.396 212.297 317.502 212.095 317.716C211.333 318.523 211.538 320.697 211.548 320.79C211.554 320.853 211.594 320.909 211.654 320.936C211.684 320.949 211.716 320.954 211.748 320.951C211.778 320.949 211.808 320.939 211.834 320.92ZM212.831 317.763C213.066 317.768 213.126 317.864 213.152 317.948C213.309 318.457 212.561 319.764 211.888 320.407C211.858 319.679 211.907 318.443 212.362 317.962C212.472 317.845 212.599 317.78 212.748 317.766C212.775 317.764 212.803 317.763 212.831 317.763Z" fill="#6C6C6C"/>
<path d="M202.808 321.634L210.481 320.894L208.139 303.467L200.466 304.206L202.808 321.634Z" fill="#FFB573"/>
<path d="M211.001 319.962L202.381 320.792C202.067 320.823 201.834 321.061 201.819 321.367L201.505 328.173C201.472 328.879 202.146 329.479 202.869 329.397C205.869 329.056 207.3 328.744 211.091 328.378C213.423 328.153 216.854 328.064 220.074 327.754C223.224 327.45 223.154 324.293 221.785 324.139C215.646 323.446 214.521 321.782 212.329 320.303C211.935 320.035 211.46 319.917 211.001 319.962Z" fill="#263238"/>
<path d="M197.197 151.564C197.197 151.564 207.012 211.579 208.904 247.131L209.257 310.812L201.315 312.361C201.315 312.361 189.808 271.734 188.484 248.252C184.971 185.944 164.677 185.842 176.887 151.453L197.197 151.564Z" fill="#263238"/>
<path d="M211.894 311.074L198.743 312.875L197.41 307.824L211.466 305.996L211.894 311.074Z" fill="#6C6C6C"/>
<path d="M140.159 96.7043H140.132L140.141 96.6604C140.141 96.678 140.15 96.6867 140.159 96.7043Z" fill="#FFB573"/>
<path d="M141.002 87.182H141.504C140.999 87.182 140.61 87.592 140.636 88.0983L141.436 103.353C141.462 103.858 141.894 104.269 142.4 104.269H141.897C141.391 104.269 140.96 103.859 140.933 103.353L140.133 88.0983C140.107 87.592 140.496 87.182 141.002 87.182Z" fill="#6C6C6C"/>
<path opacity="0.1" d="M141.002 87.182H141.504C140.999 87.182 140.61 87.592 140.636 88.0983L141.436 103.353C141.462 103.858 141.894 104.269 142.4 104.269H141.897C141.391 104.269 140.96 103.859 140.933 103.353L140.133 88.0983C140.107 87.592 140.496 87.182 141.002 87.182Z" fill="white"/>
<path d="M142.047 104.269H148.2C148.706 104.269 149.094 103.859 149.068 103.353L148.268 88.0982C148.242 87.5928 147.81 87.1819 147.304 87.1819H141.151C140.646 87.1819 140.257 87.5919 140.283 88.0982L141.083 103.353C141.109 103.858 141.541 104.269 142.047 104.269Z" fill="#6C6C6C"/>
<path opacity="0.4" d="M142.047 104.269H148.2C148.706 104.269 149.094 103.859 149.068 103.353L148.268 88.0982C148.242 87.5928 147.81 87.1819 147.304 87.1819H141.151C140.646 87.1819 140.257 87.5919 140.283 88.0982L141.083 103.353C141.109 103.858 141.541 104.269 142.047 104.269Z" fill="white"/>
<path d="M148.683 103.035C148.692 103.193 148.639 103.342 148.534 103.456C148.429 103.561 148.28 103.622 148.123 103.622H142.157C141.815 103.622 141.526 103.342 141.509 103L140.729 88.2044C140.72 88.0467 140.773 87.8978 140.878 87.7927C140.983 87.6788 141.132 87.6175 141.29 87.6175H147.255C147.597 87.6175 147.886 87.8978 147.904 88.2395L147.956 89.2994L148.683 103.035Z" fill="#263238"/>
<g opacity="0.1">
<path d="M147.956 89.2994L145.977 103.622H143.603L145.845 87.6174H147.256C147.597 87.6174 147.886 87.8978 147.904 88.2394L147.956 89.2994Z" fill="white"/>
<path d="M142.744 103.622H142.209L144.453 87.6184H144.989L142.744 103.622Z" fill="white"/>
</g>
<path d="M165.144 153.275C160.683 162.021 158.256 171.795 158.108 181.611C173.019 193.164 186.868 179.634 203.913 181.92C203.318 174.221 200.704 159.977 197.597 152.908C186.334 153.383 175.785 152.259 165.144 153.275Z" fill="#6C6C6C"/>
<path d="M166.695 150.149C166.695 150.149 165.492 153.234 165.837 153.234H197.09C197.359 153.234 197.581 153.103 197.598 152.934L197.867 150.266C197.885 150.081 197.652 149.925 197.359 149.925H167.181C166.958 149.926 166.762 150.016 166.695 150.149Z" fill="white"/>
<path d="M171.098 153.497H170.289C170.128 153.497 170.006 153.414 170.017 153.313L170.396 149.848C170.408 149.746 170.548 149.664 170.709 149.664H171.518C171.679 149.664 171.801 149.747 171.79 149.848L171.411 153.313C171.4 153.414 171.259 153.497 171.098 153.497Z" fill="#6C6C6C"/>
<path d="M190.689 153.497H189.881C189.72 153.497 189.597 153.414 189.608 153.313L189.988 149.848C189.999 149.746 190.139 149.664 190.3 149.664H191.109C191.27 149.664 191.393 149.747 191.381 149.848L191.002 153.313C190.991 153.414 190.85 153.497 190.689 153.497Z" fill="#6C6C6C"/>
</svg>
